<svg width="41" height="41" viewBox="0 0 41 41" fill="none" xmlns="http://www.w3.org/2000/svg">
<path d="M30.525 15.467C30.15 15.3421 29.8375 15.2172 29.525 15.1547C29.525 14.9049 29.5875 14.6551 29.65 14.4053C30.4 10.7205 29.9 7.72275 28.2125 6.7235C26.5875 5.7867 23.9 6.78595 21.15 9.15918C20.9 9.34654 20.65 9.59635 20.4 9.84617C20.2125 9.65881 20.025 9.5339 19.9 9.34654C17.025 6.84841 14.15 5.7867 12.4625 6.78595C10.8375 7.72275 10.3375 10.5332 11.025 14.093C11.0875 14.4053 11.15 14.78 11.275 15.0922C10.8375 15.2172 10.4625 15.3421 10.0875 15.467C6.77502 16.6536 4.40002 18.4647 4.40002 20.3383C4.40002 22.2744 6.90002 24.2729 10.4 25.4595C10.65 25.5219 10.9625 25.6469 11.2125 25.7093C11.15 26.084 11.0875 26.4587 10.9625 26.8335C10.3375 30.2684 10.8375 33.0163 12.4625 33.9531C14.15 34.9524 17.025 33.9531 19.775 31.5175C19.9625 31.3301 20.2125 31.1427 20.4 30.9554C20.7125 31.2052 20.9625 31.455 21.275 31.7048C23.9625 34.0156 26.5875 34.9524 28.2125 34.0156C29.9 33.0163 30.4625 30.081 29.775 26.4587C29.7125 26.2089 29.65 25.8967 29.5875 25.6469C29.775 25.5844 29.9625 25.5219 30.15 25.4595C33.775 24.2729 36.4 22.3368 36.4 20.3383C36.4 18.4647 33.9 16.5911 30.525 15.467ZM22.025 10.1584C24.4 8.09747 26.525 7.34803 27.525 7.91011C28.5875 8.47219 29.025 10.9703 28.3375 14.1554C28.275 14.4053 28.275 14.5926 28.2125 14.78C26.775 14.4677 25.4 14.2804 23.9625 14.1554C23.15 12.9688 22.275 11.8447 21.3375 10.783C21.5875 10.5956 21.775 10.3458 22.025 10.1584ZM14.8375 23.5859C15.15 24.148 15.4625 24.6476 15.8375 25.2097C14.8375 25.0848 13.8375 24.9599 12.9 24.7101C13.2125 23.8357 13.525 22.8989 13.9 21.9621C14.2125 22.5242 14.525 23.0238 14.8375 23.5859ZM12.9 16.0915C13.8375 15.8417 14.775 15.7168 15.775 15.5919C15.4625 16.0915 15.15 16.6536 14.8375 17.1532C14.525 17.7153 14.2125 18.2149 13.9 18.777C13.525 17.8402 13.2125 16.9658 12.9 16.0915ZM14.65 20.4008C15.025 19.5264 15.525 18.6521 15.9625 17.8402C16.4625 17.0283 16.9625 16.2164 17.525 15.4045C18.4625 15.3421 19.4 15.2796 20.4 15.2796C21.3375 15.2796 22.3375 15.3421 23.2125 15.4045C23.775 16.2164 24.275 17.0283 24.775 17.8402C25.2125 18.6521 25.7125 19.464 26.0875 20.3383C25.7125 21.2127 25.275 22.087 24.775 22.8989C24.275 23.7108 23.775 24.5227 23.275 25.3346C22.3375 25.397 21.3375 25.4595 20.4 25.4595C19.4 25.4595 18.4625 25.397 17.525 25.3346C16.9625 24.5227 16.4625 23.7108 15.9625 22.8989C15.525 22.087 15.0875 21.2127 14.65 20.4008ZM25.9 23.5859C26.275 23.0238 26.525 22.4617 26.8375 21.8997C27.2125 22.8365 27.5875 23.7108 27.9 24.6476C26.9 24.8974 25.9625 25.0848 24.9625 25.1472C25.275 24.6476 25.5875 24.0855 25.9 23.5859ZM26.8375 18.777C26.525 18.2149 26.2125 17.7153 25.9 17.1532C25.5875 16.6536 25.275 16.0915 24.9625 15.5919C25.9625 15.7168 26.9625 15.9041 27.8375 16.0915C27.525 17.0283 27.2125 17.9026 26.8375 18.777ZM20.4 11.7822C21.025 12.4692 21.65 13.2186 22.2125 14.0305C21.025 13.9681 19.775 13.9681 18.525 14.0305C19.15 13.2186 19.775 12.4692 20.4 11.7822ZM13.15 7.91011C14.2125 7.34803 16.525 8.22238 18.9625 10.3458C19.15 10.5332 19.275 10.6581 19.4625 10.783C18.4625 11.8447 17.5875 12.9688 16.775 14.1554C15.3375 14.2804 13.9625 14.4677 12.5875 14.78C12.4625 14.4677 12.4 14.1554 12.3375 13.7807C11.775 10.783 12.15 8.53465 13.15 7.91011ZM11.5875 24.3978C11.3375 24.3353 11.0875 24.2729 10.8375 24.148C9.52502 23.7108 7.96252 23.0863 6.90002 22.2119C6.27502 21.7747 5.83752 21.0878 5.71252 20.3383C5.71252 19.2142 7.71252 17.7153 10.525 16.716C10.9 16.5911 11.275 16.5287 11.65 16.4038C12.025 17.7777 12.5875 19.0893 13.15 20.4008C12.525 21.6498 12.025 23.0238 11.5875 24.3978ZM18.9 30.5182C17.8375 31.455 16.65 32.2045 15.3375 32.7041C14.65 33.0788 13.9 33.0788 13.15 32.829C12.15 32.2045 11.775 30.0186 12.3375 27.0833C12.4 26.7086 12.4625 26.3338 12.525 26.0216C13.9625 26.3338 15.3375 26.5212 16.775 26.6461C17.5875 27.7703 18.525 28.8944 19.4625 29.9561C19.275 30.1435 19.0875 30.3309 18.9 30.5182ZM20.4 29.0193C19.775 28.3323 19.15 27.5829 18.525 26.7086C19.15 26.771 19.775 26.771 20.4 26.771C21.025 26.771 21.65 26.771 22.275 26.7086C21.7125 27.5205 21.0875 28.2699 20.4 29.0193ZM28.5875 30.8929C28.525 31.6424 28.15 32.3294 27.5875 32.829C26.5875 33.3911 24.4625 32.6416 22.15 30.7056C21.9 30.4558 21.65 30.2059 21.3375 29.9561C22.3375 28.8944 23.2125 27.8327 24.025 26.6461C25.4625 26.5212 26.8375 26.2714 28.275 25.9591C28.3375 26.2089 28.4 26.4587 28.4625 26.7086C28.7125 28.0825 28.775 29.519 28.5875 30.8929ZM29.7125 24.148C29.525 24.2104 29.4 24.2729 29.2125 24.3353C28.775 22.9614 28.2125 21.6498 27.5875 20.3383C28.2125 19.0893 28.7125 17.7777 29.15 16.4038C29.4625 16.5287 29.775 16.5911 30.0875 16.716C32.9625 17.7153 35.025 19.2142 35.025 20.3383C35.025 21.5249 32.8375 23.1487 29.7125 24.148ZM20.4 23.2112C21.9625 23.2112 23.2125 21.9621 23.2125 20.3383C23.2125 18.777 21.9625 17.5279 20.4 17.5279C18.775 17.5279 17.525 18.777 17.525 20.3383C17.525 21.9621 18.775 23.2112 20.4 23.2112Z" fill="#2A7AE4"/>
</svg>
