<svg width="41" height="41" viewBox="0 0 41 41" fill="none" xmlns="http://www.w3.org/2000/svg">
<path d="M30.7 9.87512H9.7C8.53334 9.87512 7.36667 11.0418 7.36667 12.2085V28.5418C7.36667 29.8251 8.41667 30.8751 9.7 30.8751H30.7C31.8667 30.8751 33.0333 29.7085 33.0333 28.5418V12.2085C33.0333 11.0418 31.8667 9.87512 30.7 9.87512ZM30.7 28.4485C30.6767 28.4835 30.63 28.5185 30.6067 28.5418H9.7V12.3018L9.79334 12.2085H30.595C30.63 12.2318 30.665 12.2785 30.6883 12.3018V28.4485H30.7ZM19.0333 24.4701L16.1167 20.9585L12.0333 26.2085H28.3667L23.1167 19.2085L19.0333 24.4701Z" fill="#2A7AE4"/>
</svg>
