<svg width="40" height="41" viewBox="0 0 40 41" fill="none" xmlns="http://www.w3.org/2000/svg">
<path d="M21.4 9.17512V12.9131L20 14.3131L18.6 12.9131V9.17512H21.4ZM31.2 18.9751V21.7751H27.462L26.062 20.3751L27.462 18.9751H31.2ZM12.538 18.9751L13.938 20.3751L12.538 21.7751H8.8V18.9751H12.538ZM20 26.4371L21.4 27.8371V31.5751H18.6V27.8371L20 26.4371ZM24.2 6.37512H15.8V14.0751L20 18.2751L24.2 14.0751V6.37512ZM34 16.1751H26.3L22.1 20.3751L26.3 24.5751H34V16.1751ZM13.7 16.1751H6V24.5751H13.7L17.9 20.3751L13.7 16.1751ZM20 22.4751L15.8 26.6751V34.3751H24.2V26.6751L20 22.4751Z" fill="#2A7AE4"/>
</svg>
