<svg width="41" height="41" viewBox="0 0 41 41" fill="none" xmlns="http://www.w3.org/2000/svg">
<rect width="40" height="40" transform="translate(0.400024 0.375122)" fill="white"/>
<path d="M20.4 33.7084C13.0533 33.7084 7.06665 27.7217 7.06665 20.3751C7.06665 13.0284 13.0533 7.04175 20.4 7.04175C27.7466 7.04175 33.7333 12.4284 33.7333 19.0417C33.7333 23.4551 30.1466 27.0417 25.7333 27.0417H23.3733C23 27.0417 22.7066 27.3351 22.7066 27.7084C22.7066 27.8684 22.7733 28.0151 22.88 28.1484C23.4266 28.7751 23.7333 29.5617 23.7333 30.3751C23.7333 32.2151 22.24 33.7084 20.4 33.7084ZM20.4 9.70841C14.52 9.70841 9.73332 14.4951 9.73332 20.3751C9.73332 26.2551 14.52 31.0417 20.4 31.0417C20.7733 31.0417 21.0666 30.7484 21.0666 30.3751C21.0666 30.1617 20.96 30.0017 20.88 29.9084C20.3333 29.2951 20.04 28.5084 20.04 27.7084C20.04 25.8684 21.5333 24.3751 23.3733 24.3751H25.7333C28.68 24.3751 31.0666 21.9884 31.0666 19.0417C31.0666 13.8951 26.28 9.70841 20.4 9.70841Z" fill="#2A7AE4"/>
<path d="M13.0667 21.7084C14.1712 21.7084 15.0667 20.8129 15.0667 19.7084C15.0667 18.6038 14.1712 17.7084 13.0667 17.7084C11.9621 17.7084 11.0667 18.6038 11.0667 19.7084C11.0667 20.8129 11.9621 21.7084 13.0667 21.7084Z" fill="#2A7AE4"/>
<path d="M17.0667 16.3751C18.1713 16.3751 19.0667 15.4797 19.0667 14.3751C19.0667 13.2706 18.1713 12.3751 17.0667 12.3751C15.9621 12.3751 15.0667 13.2706 15.0667 14.3751C15.0667 15.4797 15.9621 16.3751 17.0667 16.3751Z" fill="#2A7AE4"/>
<path d="M23.7333 16.3751C24.8379 16.3751 25.7333 15.4797 25.7333 14.3751C25.7333 13.2706 24.8379 12.3751 23.7333 12.3751C22.6288 12.3751 21.7333 13.2706 21.7333 14.3751C21.7333 15.4797 22.6288 16.3751 23.7333 16.3751Z" fill="#2A7AE4"/>
<path d="M27.7333 21.7084C28.8379 21.7084 29.7333 20.8129 29.7333 19.7084C29.7333 18.6038 28.8379 17.7084 27.7333 17.7084C26.6288 17.7084 25.7333 18.6038 25.7333 19.7084C25.7333 20.8129 26.6288 21.7084 27.7333 21.7084Z" fill="#2A7AE4"/>
</svg>
