<svg width="36" height="41" viewBox="0 0 36 41" fill="none" xmlns="http://www.w3.org/2000/svg">
<path fill-rule="evenodd" clip-rule="evenodd" d="M13.905 7.71326H22.095C24.9183 7.71326 27.2167 9.94741 27.2167 12.6296C27.2167 14.1976 26.4303 15.6139 25.2123 16.5181C26.4303 17.4234 27.2167 18.8386 27.2167 20.4078C27.2167 23.0888 24.9183 25.3229 22.095 25.3229C20.9447 25.3229 19.8818 24.9531 19.0267 24.3324V28.1848C19.0267 30.8669 16.7295 33.1011 13.905 33.1011C11.0817 33.1011 8.78334 30.8669 8.78334 28.1848C8.78334 26.6168 9.56966 25.2016 10.7877 24.2962C9.56966 23.3909 8.78334 21.9758 8.78334 20.4078C8.78334 18.8386 9.56966 17.4234 10.7877 16.5181C9.56966 15.6139 8.78334 14.1976 8.78334 12.6296C8.78334 9.94741 11.0817 7.71326 13.905 7.71326ZM16.9733 25.3229H13.905C12.2367 25.3229 10.8367 26.6004 10.8367 28.1848C10.8367 29.7703 12.2367 31.0466 13.905 31.0466C15.5745 31.0466 16.9733 29.7703 16.9733 28.1848V25.3229ZM19.0267 20.4078C19.0267 18.8223 20.4255 17.5448 22.095 17.5448C23.7633 17.5448 25.1633 18.8223 25.1633 20.4078C25.1633 21.9921 23.7633 23.2696 22.095 23.2696C20.4255 23.2696 19.0267 21.9921 19.0267 20.4078ZM13.8665 17.5459C12.2145 17.5646 10.8367 18.8351 10.8367 20.4078C10.8367 21.9921 12.2367 23.2696 13.905 23.2696H16.9733V17.5448H13.905L13.8665 17.5459ZM16.9733 15.4914V9.76774H13.905C12.2367 9.76774 10.8367 11.0441 10.8367 12.6296C10.8367 14.2151 12.2367 15.4914 13.905 15.4914H16.9733ZM19.0267 15.4914H22.095C23.7633 15.4914 25.1633 14.2151 25.1633 12.6296C25.1633 11.0441 23.7633 9.76774 22.095 9.76774H19.0267V15.4914Z" fill="#2A7AE4"/>
</svg>
