<svg width="49" height="41" viewBox="0 0 49 41" fill="none" xmlns="http://www.w3.org/2000/svg">
<path d="M23.95 36.3751C24.075 36.3751 24.2 36.3751 24.325 36.3036L27.95 33.8711C28.1375 33.728 28.325 33.4419 28.325 33.1557V28.3623C28.325 28.0762 28.1375 27.79 27.95 27.6469L24.325 25.2145C24.075 25.0714 23.7625 25.0714 23.575 25.2145L19.95 27.6469C19.7 27.79 19.575 28.0762 19.575 28.3623V33.1557C19.575 33.4419 19.7 33.728 19.95 33.8711L20.8875 34.515C21.325 34.8012 21.5125 34.8012 21.7 34.8012C22.3875 34.8012 22.825 34.3004 22.825 33.5134V28.7916C22.825 28.7201 22.7625 28.6485 22.7 28.6485H22.2625C22.2 28.6485 22.1375 28.7201 22.1375 28.7916V33.5134C22.1375 33.8711 21.825 34.2288 21.2625 33.8711L20.2625 33.2272L20.2 33.1557V28.3623L20.2625 28.2908L23.8875 25.8584C23.95 25.8584 23.95 25.8584 24.0125 25.8584L27.6375 28.2908C27.6375 28.2908 27.6375 28.2908 27.6375 28.3623V33.1557C27.6375 33.2272 27.6375 33.2272 27.6375 33.2272L24.0125 35.6597C23.95 35.6597 23.8875 35.6597 23.8875 35.6597L22.95 35.0158H22.8875C22.6375 35.1589 22.575 35.2304 22.325 35.302C22.2625 35.302 22.2 35.3735 22.3875 35.4451L23.575 36.3036C23.7 36.3751 23.825 36.3751 23.95 36.3751ZM26.8875 31.7248C26.8875 30.7948 26.325 30.5802 25.2 30.3655C24.075 30.2225 24.0125 30.1509 24.0125 29.8647C24.0125 29.5786 24.075 29.2924 24.8875 29.2924C25.6375 29.2924 25.95 29.4355 26.0125 30.0078C26.075 30.0794 26.075 30.0794 26.1375 30.0794H26.6375C26.6375 30.0794 26.6375 30.0794 26.7 30.0794V30.0078C26.6375 29.0062 26.075 28.5054 24.8875 28.5054C23.8875 28.5054 23.2625 29.0062 23.2625 29.8647C23.2625 30.7948 23.8875 31.0094 24.8875 31.1525C26.075 31.2956 26.1375 31.4387 26.1375 31.7248C26.1375 32.2256 25.825 32.3687 25.075 32.3687C24.075 32.3687 23.8875 32.0826 23.825 31.5818C23.825 31.5102 23.7625 31.4387 23.7 31.4387H23.2625C23.2 31.4387 23.1375 31.5102 23.1375 31.5818C23.1375 32.2972 23.45 33.0842 25.075 33.0842C26.2 33.0842 26.8875 32.5834 26.8875 31.7248ZM30.2625 28.1477C30.2625 27.6469 29.95 27.2892 29.575 27.2892C29.2 27.2892 28.8875 27.6469 28.8875 28.1477C28.8875 28.577 29.2 28.9347 29.575 28.9347C29.95 28.9347 30.2625 28.577 30.2625 28.1477ZM30.1375 28.1477C30.1375 28.5054 29.8875 28.7916 29.575 28.7916C29.2625 28.7916 29.0125 28.5054 29.0125 28.1477C29.0125 27.7185 29.2625 27.4323 29.575 27.4323C29.8875 27.4323 30.1375 27.7185 30.1375 28.1477ZM29.8875 28.577C29.825 28.5054 29.825 28.3623 29.825 28.2908C29.825 28.2193 29.825 28.1477 29.7 28.1477C29.7625 28.0762 29.825 28.0762 29.825 27.9331C29.825 27.6469 29.7 27.6469 29.575 27.6469H29.325V28.577H29.45V28.2193H29.575C29.6375 28.2193 29.6375 28.2193 29.7 28.2908C29.7 28.2908 29.7 28.5054 29.7 28.577H29.8875ZM29.7 27.9331C29.7 28.0046 29.7 28.0762 29.575 28.0762H29.45V27.79H29.575C29.6375 27.79 29.7 27.79 29.7 27.9331ZM12.7625 17.7025C12.7625 17.5594 12.6375 17.3448 12.5125 17.2732L8.70001 14.7692C8.63751 14.6977 8.57501 14.6977 8.45001 14.6977C8.38751 14.6977 8.32501 14.6977 8.20001 14.7692L4.38751 17.2732C4.26251 17.3448 4.20001 17.5594 4.20001 17.7025V24.499C4.20001 24.6421 4.20001 24.7137 4.26251 24.7852C4.38751 24.7852 4.45001 24.7852 4.51251 24.7852L6.82501 23.2828C6.95001 23.1397 7.01251 22.9966 7.01251 22.782V19.6341C7.01251 19.4195 7.13751 19.2764 7.26251 19.2049L8.20001 18.561C8.32501 18.4895 8.38751 18.4895 8.45001 18.4895C8.51251 18.4895 8.63751 18.4895 8.70001 18.561L9.63751 19.2049C9.82501 19.2764 9.88751 19.4195 9.88751 19.6341V22.782C9.88751 22.9966 9.95001 23.1397 10.1375 23.2828L12.3875 24.7852C12.45 24.7852 12.575 24.7852 12.6375 24.7852C12.7 24.7137 12.7625 24.6421 12.7625 24.499V17.7025ZM33.7 10.3336C33.7 10.119 33.6375 9.97589 33.45 9.8328L31.2 8.40195C31.0125 8.33041 30.825 8.40195 30.825 8.61658V15.3416C30.825 15.4847 30.7 15.5562 30.575 15.4847L29.6375 14.9123C29.5125 14.7692 29.325 14.7692 29.2 14.9123L25.325 17.4163C25.2 17.4879 25.1375 17.7025 25.1375 17.8456V22.9251C25.1375 23.1397 25.2 23.2828 25.325 23.4259L29.2 25.9299C29.325 26.0014 29.5125 26.0014 29.6375 25.9299L33.45 23.4259C33.6375 23.2828 33.7 23.1397 33.7 22.9251V10.3336ZM30.825 19.5626V21.2796C30.825 21.3512 30.825 21.3512 30.7625 21.4227L29.45 22.2812C29.45 22.2812 29.3875 22.2812 29.325 22.2812L28.0125 21.4227C28.0125 21.3512 27.95 21.3512 27.95 21.2796V19.5626C27.95 19.4911 28.0125 19.4195 28.0125 19.4195L29.325 18.561C29.3875 18.561 29.45 18.561 29.45 18.561L30.7625 19.4195C30.825 19.4195 30.825 19.4911 30.825 19.5626ZM43.95 19.4911C44.075 19.4195 44.2 19.2049 44.2 19.0618V17.774C44.2 17.631 44.075 17.4163 43.95 17.3448L40.1375 14.8408C40.0125 14.6977 39.825 14.6977 39.7 14.8408L35.825 17.3448C35.7 17.4163 35.6375 17.631 35.6375 17.774V22.8536C35.6375 23.0682 35.7 23.2113 35.825 23.3544L39.6375 25.7868C39.7625 25.9299 39.95 25.9299 40.075 25.7868L42.3875 24.356C42.575 24.2129 42.575 23.9982 42.3875 23.8552L38.575 21.3512C38.45 21.2796 38.45 21.2081 38.45 21.1365V19.5626C38.45 19.4195 38.45 19.348 38.575 19.2764L39.7625 18.4895C39.825 18.4895 39.8875 18.4895 39.95 18.4895L41.2 19.2764C41.2625 19.348 41.325 19.4195 41.325 19.5626V20.7788C41.325 20.9935 41.5125 21.1365 41.6375 20.9935L43.95 19.4911ZM39.1375 19.7057C39.075 19.7772 39.075 19.7772 39.075 19.8488V20.7788C39.075 20.8504 39.075 20.8504 39.1375 20.8504L39.825 21.3512C39.8875 21.4227 39.8875 21.4227 39.95 21.3512L40.7 20.8504C40.7 20.8504 40.7 20.8504 40.7 20.7788V19.8488C40.7 19.7772 40.7 19.7772 40.7 19.7057L39.95 19.2764C39.8875 19.2049 39.8875 19.2049 39.825 19.2764L39.1375 19.7057ZM23.2 22.8536V17.8456C23.2 17.631 23.1375 17.4163 22.95 17.3448L19.1375 14.8408C19.0125 14.7692 18.825 14.7692 18.7 14.8408L14.8875 17.3448C14.7625 17.4163 14.6375 17.631 14.6375 17.8456V22.8536C14.6375 23.0682 14.7625 23.2113 14.8875 23.2828L18.7 25.8584C18.8875 25.9299 19.0125 25.9299 19.2 25.8584L23.0125 23.2828C23.075 23.2113 23.2 23.1397 23.2 22.9966C23.2 22.9251 23.2 22.9251 23.2 22.8536ZM18.575 13.9107V13.9823H18.5125L18.575 13.9107Z" fill="#2A7AE4"/>
</svg>
