<svg width="40" height="41" viewBox="0 0 40 41" fill="none" xmlns="http://www.w3.org/2000/svg">
<path d="M20 13.8751C21.7949 13.8751 23.25 12.42 23.25 10.6251C23.25 8.8302 21.7949 7.37512 20 7.37512C18.2051 7.37512 16.75 8.8302 16.75 10.6251C16.75 12.42 18.2051 13.8751 20 13.8751Z" fill="#2A7AE4"/>
<path d="M34.625 26.8751V23.6251C30.985 23.6251 27.865 22.0651 25.525 19.2701L23.3475 16.6701C22.73 15.9226 21.82 15.5001 20.8612 15.5001H19.155C18.1962 15.5001 17.2863 15.9226 16.6687 16.6701L14.4912 19.2701C12.135 22.0651 9.015 23.6251 5.375 23.6251V26.8751C9.87625 26.8751 13.8088 24.9739 16.75 21.5939V25.2501L10.445 27.7689C9.35625 28.2076 8.625 29.2801 8.625 30.4664C8.625 32.0751 9.925 33.3751 11.5338 33.3751H15.125V32.5626C15.125 30.3201 16.945 28.5001 19.1875 28.5001H24.0625C24.5175 28.5001 24.875 28.8576 24.875 29.3126C24.875 29.7676 24.5175 30.1251 24.0625 30.1251H19.1875C17.8387 30.1251 16.75 31.2139 16.75 32.5626V33.3751H28.4662C30.075 33.3751 31.375 32.0751 31.375 30.4664C31.375 29.2801 30.6437 28.2076 29.555 27.7689L23.25 25.2501V21.5939C26.1912 24.9739 30.1238 26.8751 34.625 26.8751Z" fill="#2A7AE4"/>
</svg>
