<svg width="32" height="37" viewBox="0 0 32 37" fill="none" xmlns="http://www.w3.org/2000/svg">
<path d="M20.542 4.37512H9.27886C7.63342 4.37512 6.29415 5.71321 6.29415 7.35527V18.3751H6.00257C5.33846 18.3751 4.79999 18.9123 4.79999 19.5759V26.8587C4.79999 27.5223 5.33846 28.0596 6.00257 28.0596H6.29415V29.395C6.29415 31.0388 7.63348 32.3751 9.27886 32.3751H24.647C26.2914 32.3751 27.6308 31.0388 27.6308 29.395V11.4282L20.542 4.37512ZM10.5442 25.0034C10.8894 25.0034 11.2721 24.9285 11.4977 24.8388L11.6699 25.7302C11.46 25.8355 10.987 25.9481 10.3719 25.9481C8.62301 25.9481 7.72235 24.8617 7.72235 23.4228C7.72235 21.6994 8.95338 20.7402 10.4843 20.7402C11.0773 20.7402 11.5275 20.8601 11.73 20.9645L11.4977 21.8714C11.2648 21.7735 10.9422 21.6839 10.5369 21.6839C9.62848 21.6839 8.92313 22.2311 8.92313 23.3552C8.92313 24.3665 9.52356 25.0034 10.5442 25.0034ZM24.6469 30.55H9.27886C8.64174 30.55 8.12286 30.032 8.12286 29.395V28.0596H22.4491C23.1133 28.0596 23.6519 27.5223 23.6519 26.8587V19.5759C23.6519 18.9123 23.1133 18.3751 22.4491 18.3751H8.12286V7.35527C8.12286 6.71999 8.64174 6.20197 9.27886 6.20197L19.8582 6.19099V10.0955C19.8582 11.2359 20.785 12.1622 21.9281 12.1622L25.7588 12.1513L25.8019 29.395C25.8019 30.032 25.284 30.55 24.6469 30.55ZM13.6839 23.7523C12.8432 23.4604 12.2952 22.9955 12.2952 22.2613C12.2952 21.3991 13.0156 20.7401 14.2091 20.7401C14.7793 20.7401 15.2001 20.86 15.4998 20.9946L15.2449 21.9163C15.0424 21.8193 14.6821 21.6764 14.1866 21.6764C13.6912 21.6764 13.451 21.9017 13.451 22.1635C13.451 22.4856 13.7361 22.6284 14.3892 22.8755C15.2825 23.2051 15.7028 23.67 15.7028 24.3821C15.7028 25.2287 15.0497 25.9481 13.6614 25.9481C13.0834 25.9481 12.5128 25.798 12.2277 25.6405L12.4605 24.6969C12.7681 24.8544 13.2411 25.0109 13.7288 25.0109C14.254 25.0109 14.5318 24.7939 14.5318 24.4643C14.5318 24.1496 14.2917 23.9693 13.6839 23.7523ZM17.7388 23.7523C16.8983 23.4604 16.3501 22.9955 16.3501 22.2613C16.3501 21.3991 17.0706 20.7401 18.264 20.7401C18.8348 20.7401 19.2545 20.86 19.5552 20.9946L19.3 21.9163C19.0973 21.8193 18.7371 21.6764 18.2416 21.6764C17.7462 21.6764 17.506 21.9017 17.506 22.1635C17.506 22.4856 17.7911 22.6284 18.4443 22.8755C19.3375 23.2051 19.7579 23.67 19.7579 24.3821C19.7579 25.2287 19.1048 25.9481 17.7165 25.9481C17.1384 25.9481 16.5678 25.798 16.2827 25.6405L16.5156 24.6969C16.8231 24.8544 17.2961 25.0109 17.7837 25.0109C18.309 25.0109 18.5868 24.7939 18.5868 24.4643C18.5868 24.1496 18.3465 23.9693 17.7388 23.7523Z" fill="#2A7AE4"/>
</svg>
