<svg width="41" height="41" viewBox="0 0 41 41" fill="none" xmlns="http://www.w3.org/2000/svg">
<path d="M31.6 6.37512H9.59998C7.91248 6.37512 6.59998 7.75012 6.59998 9.37512V31.3751C6.59998 33.0626 7.91248 34.3751 9.59998 34.3751H31.6C33.225 34.3751 34.6 33.0626 34.6 31.3751V9.37512C34.6 7.75012 33.225 6.37512 31.6 6.37512ZM21.7875 28.2501C21.7875 30.9376 20.225 32.1876 17.85 32.1876C15.7875 32.1876 14.5375 31.1251 13.9125 29.8126L16.1 28.5001C16.475 29.2501 16.85 29.8751 17.7875 29.8751C18.6 29.8751 19.1625 29.5001 19.1625 28.1876V19.2501H21.7875V28.2501ZM28.0375 32.1876C25.6 32.1876 24.0375 31.0626 23.225 29.5001L25.4125 28.3126C25.975 29.1876 26.6625 29.8751 27.975 29.8751C29.0375 29.8751 29.7875 29.3126 29.7875 28.5626C29.7875 27.6876 29.0375 27.3751 27.85 26.8126L27.1625 26.5626C25.2875 25.7501 24.0375 24.7501 24.0375 22.5626C24.0375 20.6251 25.5375 19.1251 27.9125 19.1251C29.5375 19.1251 30.7875 19.6876 31.6 21.1876L29.6 22.5001C29.1 21.7501 28.6625 21.3751 27.85 21.3751C27.1 21.3751 26.6 21.8751 26.6 22.5001C26.6 23.3126 27.1 23.6251 28.225 24.1251L28.9125 24.4376C31.1625 25.3751 32.4125 26.3751 32.4125 28.5626C32.4125 30.9376 30.5375 32.1876 28.0375 32.1876Z" fill="#2A7AE4"/>
</svg>
