<svg width="380" height="72" viewBox="0 0 380 72" fill="none" xmlns="http://www.w3.org/2000/svg">
<path d="M61.7791 2.11795C62.2189 1.59715 61.5129 0.879591 60.9921 1.33096C52.7292 8.44623 44.4669 15.569 36.2943 22.7882C36.1439 22.9155 36.0744 23.1122 36.1091 23.2974C36.5952 25.9361 38.8636 26.781 39.7201 27.0125C39.9168 27.0588 40.1251 26.9893 40.264 26.8389C47.6183 18.7671 54.5584 10.3095 61.7791 2.11795Z" fill="#FF0177"/>
<path d="M31.7808 2.84716C34.0377 0.590335 37.7064 0.590335 39.9633 2.84716L47.6249 10.5088C42.3358 15.0109 37.4287 19.3394 34.6163 21.8624C33.6442 21.5036 32.591 21.2374 31.4683 21.0985C31.6304 15.6243 30.0911 12.7309 30.0911 12.7309C30.0911 12.7309 23.9803 16.2492 22.5105 25.7511C22.5105 25.7511 22.1633 23.8067 22.5105 22.3716C16.8742 24.6516 11.1916 29.9869 7.61543 39.8128C7.39553 40.4262 7.54599 41.1206 8.00893 41.5836C11.4231 44.9977 25.427 59.0016 29.9754 63.55C30.2994 63.8741 30.8318 63.5384 30.6929 63.0986C28.8412 56.9647 30.6814 49.685 30.6814 49.685C19.212 45.8889 22.5568 35.8778 22.5568 35.8778C20.786 46.0972 32.5563 48.2614 32.5563 48.2614C33.4243 53.5968 35.5769 56.5365 36.8847 57.879C37.4518 58.4577 38.3083 58.6313 39.049 58.3072L44.4538 55.9694C45.2639 55.6222 45.7269 54.7657 45.5995 53.8862C44.1644 44.2917 44.1876 35.1603 41.1901 28.494C43.7362 25.6469 48.111 20.6819 52.5668 15.4507L68.8969 31.7808C71.1538 34.0377 71.1538 37.7064 68.8969 39.9633L39.9633 68.8969C37.7064 71.1538 34.0377 71.1538 31.7808 68.8969L30.5888 67.7049L4.03923 41.1553L2.84716 39.9633C0.590335 37.7064 0.590335 34.0377 2.84716 31.7808L31.7808 2.84716Z" fill="#FF0177"/>
<path d="M103.142 25.4281L114.69 25.2505V28.8037L111.812 30.1539L112.558 28.4128V40.3514C112.558 41.8438 112.404 43.1703 112.096 44.331C111.788 45.4917 111.326 46.4984 110.71 47.3512C110.094 48.1802 109.348 48.8672 108.472 49.412C107.595 49.9568 106.588 50.3595 105.451 50.6201C104.314 50.8806 103.059 51.0109 101.685 51.0109C99.6006 51.0109 97.8951 50.7622 96.5686 50.2647C95.2421 49.7436 94.2116 49.0804 93.4773 48.275C92.743 47.4459 92.2219 46.5695 91.9139 45.6456C91.606 44.7218 91.4165 43.8454 91.3454 43.0163C91.2744 42.1635 91.2388 41.4529 91.2388 40.8844V28.4483L91.985 30.1183L89.1069 28.9813V25.4281L100.655 25.2505V28.8037L97.8832 30.1539L98.5228 28.4483V40.8844C98.5228 41.524 98.5465 42.0925 98.5939 42.5899C98.6649 43.0874 98.7597 43.5256 98.8781 43.9046C99.0203 44.2599 99.2098 44.556 99.4466 44.7929C99.7072 45.0298 100.027 45.2074 100.406 45.3258C100.785 45.4443 101.247 45.5035 101.792 45.5035C102.36 45.5035 102.834 45.4443 103.213 45.3258C103.616 45.1837 103.947 44.9824 104.208 44.7218C104.492 44.4612 104.705 44.1296 104.847 43.7269C105.013 43.3242 105.12 42.8505 105.167 42.3057C105.238 41.7372 105.274 41.0857 105.274 40.3514V28.4128L105.842 30.0473L103.142 28.9813V25.4281Z" fill="#0D0C0C"/>
<path d="M139.781 47.2446L137.72 45.7522L140.314 46.9248V50.4779H128.624V46.9248L130.933 45.8588L131.182 46.9248L126.279 40.6712L127.949 40.6001L122.903 47.209L122.583 45.6812L125.106 46.9248V50.4779H115.548V46.9248L118.106 45.7167L116.259 47.3156L124.395 37.1536L124.324 38.9302L116.685 28.8037L118.249 29.8341L115.903 28.9813V25.4281L127.38 25.2505V28.8037L125.213 29.8696L125.461 29.0168L129.832 34.8796L128.268 34.5242L132.426 29.0168L132.781 30.0117L130.471 28.9813V25.4281L139.923 25.2505V28.8037L137.4 30.296L139.07 28.8037L131.466 38.4327L131.679 36.7272L139.781 47.2446Z" fill="#0D0C0C"/>
<path d="M163.608 25.4279L175.156 25.2503V28.8035L172.277 30.1536L173.024 28.4126V40.3512C173.024 41.8435 172.87 43.1701 172.562 44.3308C172.254 45.4915 171.792 46.4982 171.176 47.3509C170.56 48.18 169.814 48.867 168.937 49.4118C168.061 49.9566 167.054 50.3593 165.917 50.6199C164.78 50.8804 163.525 51.0107 162.151 51.0107C160.066 51.0107 158.361 50.762 157.034 50.2645C155.708 49.7434 154.677 49.0801 153.943 48.2748C153.209 47.4457 152.688 46.5692 152.38 45.6454C152.072 44.7216 151.882 43.8452 151.811 43.0161C151.74 42.1633 151.705 41.4527 151.705 40.8842V28.4481L152.451 30.1181L149.573 28.9811V25.4279L161.121 25.2503V28.8035L158.349 30.1536L158.989 28.4481V40.8842C158.989 41.5238 159.012 42.0923 159.06 42.5897C159.131 43.0872 159.226 43.5254 159.344 43.9044C159.486 44.2597 159.676 44.5558 159.912 44.7927C160.173 45.0295 160.493 45.2072 160.872 45.3256C161.251 45.4441 161.713 45.5033 162.258 45.5033C162.826 45.5033 163.3 45.4441 163.679 45.3256C164.081 45.1835 164.413 44.9822 164.674 44.7216C164.958 44.461 165.171 44.1294 165.313 43.7267C165.479 43.324 165.586 42.8503 165.633 42.3055C165.704 41.737 165.74 41.0855 165.74 40.3512V28.4126L166.308 30.0471L163.608 28.9811V25.4279Z" fill="#0D0C0C"/>
<path d="M176.61 50.4777V46.9246L179.346 45.8586L178.564 46.818V34.9859L179.346 36.0519L176.61 34.9859V31.4328L184.107 31.0775L184.96 34.3819L184.071 34.0977C185.208 32.9843 186.405 32.1553 187.66 31.6104C188.939 31.0419 190.159 30.7577 191.32 30.7577C192.931 30.7577 194.281 31.2788 195.37 32.3211C196.484 33.3633 197.04 34.9386 197.04 37.0468V46.818L196.472 45.8941L198.995 46.9246V50.4777H189.934V38.5391C189.934 37.6863 189.756 37.0705 189.401 36.6915C189.069 36.2888 188.631 36.0874 188.086 36.0874C187.66 36.0874 187.198 36.2059 186.701 36.4427C186.227 36.6559 185.741 36.9639 185.244 37.3666L185.67 36.4427V46.9601L185.102 46.0007L187.269 46.9246V50.4777H176.61Z" fill="#0D0C0C"/>
<path d="M209.331 46.4982L208.904 45.9652L211.285 46.9246V50.4777H200.27V46.9246L202.651 45.9652L202.224 46.4982V35.5189L202.579 35.8742L200.27 34.9859V31.4328L209.331 31.1485V46.4982Z" fill="#0D0C0C"/>
<path d="M221.677 51.0107C219.924 51.0107 218.337 50.6199 216.916 49.8382C215.518 49.0565 214.417 47.9195 213.612 46.4271C212.806 44.9348 212.404 43.1227 212.404 40.9908C212.404 38.9773 212.7 37.3192 213.292 36.0164C213.908 34.6898 214.713 33.6476 215.708 32.8896C216.727 32.1079 217.84 31.5631 219.048 31.2551C220.256 30.9235 221.476 30.7577 222.708 30.7577C224.058 30.7577 225.349 30.9235 226.581 31.2551C227.812 31.5631 228.76 31.8473 229.423 32.1079L229.246 38.0772H224.804L224.236 35.59L224.733 35.8742C224.591 35.8505 224.342 35.8269 223.987 35.8032C223.655 35.7558 223.3 35.7321 222.921 35.7321C222.116 35.7321 221.476 35.9335 221.002 36.3361C220.552 36.7388 220.232 37.3073 220.043 38.0417C219.877 38.776 219.794 39.6287 219.794 40.5999C219.794 41.7843 219.924 42.7674 220.185 43.5491C220.469 44.3308 220.872 44.9111 221.393 45.2901C221.938 45.6691 222.577 45.8586 223.312 45.8586C223.951 45.8586 224.662 45.7283 225.444 45.4678C226.225 45.2072 227.078 44.8164 228.002 44.2952L230.276 47.8129C228.878 48.9025 227.457 49.7079 226.012 50.229C224.591 50.7501 223.146 51.0107 221.677 51.0107Z" fill="#0D0C0C"/>
<path d="M240.846 30.7577C243.878 30.7577 246.211 31.5986 247.846 33.2804C249.504 34.9623 250.333 37.3784 250.333 40.5289C250.333 42.7318 249.918 44.615 249.089 46.1784C248.284 47.7418 247.123 48.938 245.607 49.7671C244.091 50.5962 242.279 51.0107 240.171 51.0107C237.139 51.0107 234.817 50.1579 233.207 48.4524C231.596 46.7469 230.79 44.3308 230.79 41.204C230.79 39.001 231.181 37.1297 231.963 35.59C232.768 34.0266 233.917 32.8304 235.41 32.0013C236.902 31.1722 238.714 30.7577 240.846 30.7577ZM240.526 35.7321C239.65 35.7321 239.034 36.1111 238.678 36.8691C238.347 37.6271 238.181 38.9655 238.181 40.8842C238.181 42.8029 238.347 44.1413 238.678 44.8993C239.034 45.6573 239.65 46.0363 240.526 46.0363C241.142 46.0363 241.616 45.8705 241.947 45.5388C242.303 45.1835 242.551 44.6269 242.694 43.8688C242.859 43.0872 242.942 42.0686 242.942 40.8131C242.942 38.9181 242.765 37.6034 242.409 36.8691C242.054 36.1111 241.426 35.7321 240.526 35.7321Z" fill="#0D0C0C"/>
<path d="M251.993 50.4777V46.9246L254.551 45.9297L253.947 46.9246V34.9504L254.658 36.0519L251.993 34.9859V31.4328L259.49 31.0775L260.343 34.3464L259.455 34.1687C260.568 33.0554 261.646 32.2145 262.688 31.646C263.73 31.0538 264.832 30.7577 265.992 30.7577C266.75 30.7577 267.568 30.8761 268.444 31.113L268.089 39.0721H264.038L263.434 35.0925L264.038 36.4072C263.943 36.3598 263.837 36.3243 263.718 36.3006C263.6 36.2769 263.481 36.2651 263.363 36.2651C262.842 36.2651 262.309 36.4427 261.764 36.7981C261.219 37.1297 260.805 37.5324 260.521 38.0061L261.053 36.194V46.9246L260.307 45.9297L263.541 46.9246V50.4777H251.993Z" fill="#0D0C0C"/>
<path d="M270.101 50.4777V46.9246L272.837 45.8586L272.056 46.818V34.9859L272.837 36.0519L270.101 34.9859V31.4328L277.599 31.0775L278.451 34.3819L277.563 34.0977C278.7 32.9843 279.896 32.1553 281.152 31.6104C282.431 31.0419 283.651 30.7577 284.811 30.7577C286.422 30.7577 287.772 31.2788 288.862 32.3211C289.975 33.3633 290.532 34.9386 290.532 37.0468V46.818L289.964 45.8941L292.486 46.9246V50.4777H283.426V38.5391C283.426 37.6863 283.248 37.0705 282.893 36.6915C282.561 36.2888 282.123 36.0874 281.578 36.0874C281.152 36.0874 280.69 36.2059 280.192 36.4427C279.719 36.6559 279.233 36.9639 278.736 37.3666L279.162 36.4427V46.9601L278.593 46.0007L280.761 46.9246V50.4777H270.101Z" fill="#0D0C0C"/>
<path d="M302.822 46.4982L302.396 45.9652L304.776 46.9246V50.4777H293.762V46.9246L296.142 45.9652L295.716 46.4982V35.5189L296.071 35.8742L293.762 34.9859V31.4328L302.822 31.1485V46.4982Z" fill="#0D0C0C"/>
<path d="M315.986 30.7577C319.018 30.7577 321.352 31.5986 322.986 33.2804C324.644 34.9623 325.473 37.3784 325.473 40.5289C325.473 42.7318 325.059 44.615 324.23 46.1784C323.424 47.7418 322.264 48.938 320.748 49.7671C319.231 50.5962 317.419 51.0107 315.311 51.0107C312.279 51.0107 309.958 50.1579 308.347 48.4524C306.736 46.7469 305.931 44.3308 305.931 41.204C305.931 39.001 306.322 37.1297 307.103 35.59C307.909 34.0266 309.058 32.8304 310.55 32.0013C312.042 31.1722 313.854 30.7577 315.986 30.7577ZM315.667 35.7321C314.79 35.7321 314.174 36.1111 313.819 36.8691C313.487 37.6271 313.321 38.9655 313.321 40.8842C313.321 42.8029 313.487 44.1413 313.819 44.8993C314.174 45.6573 314.79 46.0363 315.667 46.0363C316.282 46.0363 316.756 45.8705 317.088 45.5388C317.443 45.1835 317.692 44.6269 317.834 43.8688C318 43.0872 318.083 42.0686 318.083 40.8131C318.083 38.9181 317.905 37.6034 317.55 36.8691C317.194 36.1111 316.567 35.7321 315.667 35.7321Z" fill="#0D0C0C"/>
<path d="M204.379 29.2103C204.876 29.7077 205.69 29.7077 206.188 29.2103L209.331 26.0675C209.828 25.5701 209.828 24.7562 209.331 24.2587L206.188 21.116C205.69 20.6186 204.876 20.6186 204.379 21.116L201.236 24.2587C200.739 24.7562 200.739 25.5701 201.236 26.0675L204.379 29.2103Z" fill="#0D0C0C"/>
<path d="M297.664 29.2103C298.162 29.7077 298.976 29.7077 299.473 29.2103L302.616 26.0675C303.113 25.5701 303.113 24.7562 302.616 24.2587L299.473 21.116C298.976 20.6186 298.162 20.6186 297.664 21.116L294.522 24.2587C294.024 24.7562 294.024 25.5701 294.522 26.0675L297.664 29.2103Z" fill="#0D0C0C"/>
<path d="M240.024 29.1295C240.36 29.4826 240.915 29.4994 241.268 29.1631L246.565 24.1022C246.918 23.7659 246.935 23.211 246.598 22.8579L244.842 21.0086C244.506 20.6555 243.951 20.6387 243.598 20.975L238.302 26.0359C237.948 26.3722 237.932 26.927 238.268 27.2801L240.024 29.1295Z" fill="#0D0C0C"/>
<path d="M335.949 50.4163V46.4643C335.949 45.6388 336.081 44.9186 336.344 44.3039C336.625 43.6891 337.065 43.1446 337.662 42.6704C338.259 42.1786 339.049 41.7219 340.033 41.3004L343.142 39.9567C343.932 39.623 344.512 39.2102 344.881 38.7184C345.267 38.2266 345.46 37.6031 345.46 36.8478C345.46 36.075 345.223 35.4426 344.749 34.9508C344.275 34.459 343.581 34.2131 342.668 34.2131C341.754 34.2131 341.06 34.4678 340.586 34.9772C340.112 35.4866 339.875 36.1716 339.875 37.0322H335.686C335.686 35.8203 335.949 34.7313 336.476 33.7653C337.003 32.7816 337.785 32.0088 338.821 31.4468C339.857 30.8847 341.139 30.6037 342.668 30.6037C344.196 30.6037 345.469 30.8759 346.488 31.4204C347.524 31.9649 348.306 32.6938 348.833 33.6072C349.377 34.5205 349.649 35.548 349.649 36.6897V37.0059C349.649 38.4813 349.245 39.702 348.437 40.668C347.629 41.6165 346.382 42.4596 344.696 43.1973L341.614 44.541C341.087 44.7693 340.709 45.0064 340.481 45.2523C340.27 45.4982 340.165 45.832 340.165 46.2535V47.5708L339.137 46.7014H349.676V50.4163H335.949ZM352.28 50.4163V45.7002H356.917V50.4163H352.28ZM368.284 50.9168C366.755 50.9168 365.447 50.6709 364.358 50.1791C363.269 49.6698 362.382 48.9848 361.697 48.1241C361.03 47.2635 360.529 46.2711 360.195 45.147C359.879 44.0053 359.721 42.8021 359.721 41.5375V40.0357C359.721 38.2793 360.028 36.6897 360.643 35.267C361.258 33.8443 362.198 32.7114 363.462 31.8683C364.727 31.0252 366.334 30.6037 368.284 30.6037C370.233 30.6037 371.832 31.0252 373.079 31.8683C374.343 32.7114 375.283 33.8443 375.898 35.267C376.512 36.6897 376.82 38.2793 376.82 40.0357V41.5375C376.82 42.8021 376.653 44.0053 376.319 45.147C376.003 46.2711 375.503 47.2635 374.818 48.1241C374.15 48.9848 373.272 49.6698 372.183 50.1791C371.111 50.6709 369.812 50.9168 368.284 50.9168ZM368.284 46.9385C369.706 46.9385 370.76 46.4467 371.445 45.4631C372.148 44.4619 372.499 42.9163 372.499 40.8261C372.499 38.613 372.139 37.0234 371.419 36.0574C370.716 35.0738 369.671 34.582 368.284 34.582C366.861 34.582 365.798 35.0738 365.096 36.0574C364.393 37.0234 364.042 38.5954 364.042 40.7734C364.042 42.8812 364.384 44.4356 365.069 45.4368C365.772 46.4379 366.843 46.9385 368.284 46.9385Z" fill="#FF0177"/>
</svg>
