<svg width="33" height="32" viewBox="0 0 33 32" fill="none" xmlns="http://www.w3.org/2000/svg">
<path d="M14.6145 1.37112C15.6546 0.36067 17.3454 0.36067 18.3855 1.37112L21.9164 4.80145C19.4789 6.81717 17.2174 8.75517 15.9213 9.88478C15.4733 9.72414 14.9879 9.60495 14.4705 9.54276C14.5452 7.09181 13.8358 5.79635 13.8358 5.79635C13.8358 5.79635 11.0195 7.37159 10.3422 11.6259C10.3422 11.6259 10.1821 10.7553 10.3422 10.1128C7.7446 11.1336 5.1257 13.5224 3.47758 17.9217C3.37624 18.1963 3.44558 18.5072 3.65893 18.7145C5.23239 20.2431 11.6863 26.5131 13.7825 28.5495C13.9318 28.6946 14.1771 28.5443 14.1131 28.3474C13.2597 25.6011 14.1078 22.3418 14.1078 22.3418C8.82201 20.6421 10.3635 16.1599 10.3635 16.1599C9.5474 20.7354 14.9719 21.7044 14.9719 21.7044C15.3719 24.0932 16.364 25.4094 16.9667 26.0105C17.228 26.2696 17.6228 26.3473 17.9641 26.2022L20.455 25.1555C20.8283 25 21.0417 24.6165 20.983 24.2228C20.3216 19.927 20.3323 15.8386 18.9509 12.8539C20.1243 11.5792 22.1405 9.35624 24.194 7.01408L31.7199 14.3255C32.76 15.336 32.76 16.9786 31.7199 17.9891L18.3855 30.9435C17.3454 31.954 15.6546 31.954 14.6145 30.9435L14.0651 30.4098L1.82944 18.5228L1.28006 17.9891C0.239979 16.9786 0.239979 15.336 1.28006 14.3255L14.6145 1.37112Z" fill="#FF0177"/>
<path d="M25.6233 1.04566C25.8056 0.812478 25.513 0.491206 25.2972 0.693297C21.8729 3.87901 18.449 7.06808 15.0622 10.3003C14.9999 10.3573 14.9711 10.4454 14.9854 10.5283C15.1869 11.7097 16.1269 12.088 16.4819 12.1917C16.5634 12.2124 16.6497 12.1813 16.7073 12.1139C19.755 8.49996 22.631 4.71325 25.6233 1.04566Z" fill="#FF0177"/>
</svg>
