<svg width="33" height="36" viewBox="0 0 33 36" fill="none" xmlns="http://www.w3.org/2000/svg">
<path d="M9.3061 22.6671L9.31088 22.7255C11.7105 23.0115 16.9725 23.5835 20.8804 23.5835C24.7884 23.5835 29.6219 23.2976 30.6503 22.7256C31.6788 22.1536 32.2444 19.5223 32.45 18.1494C32.6557 16.7766 32.1929 13.2874 31.6787 12.7154C31.1645 12.1434 24.4798 13.0014 19.5949 13.0015C14.71 13.0015 12.4475 12.8298 10.5963 14.4315C8.76222 16.0184 9.13242 20.544 9.3061 22.6671Z" fill="black"/>
<path d="M16.7665 8.71072C16.7665 10.5412 19.0804 10.4269 19.0804 10.4269L31.4213 9.85475V2.70476C31.4213 2.13274 31.3865 1.6631 31.1642 1.27458C30.8026 0.642462 29.9644 0.702717 29.6216 0.702717H17.5378C17.3664 2.60942 16.7665 6.88029 16.7665 8.71072Z" fill="black"/>
<path d="M17.0238 25.5815C13.9386 25.5815 1.96092 25.9508 1.59766 26.4396C1.23441 26.9283 1.49144 28.2829 1.23434 30.571C0.977237 32.859 0.279341 35.1473 0.569253 35.3057C0.859165 35.4642 22.8857 35.8205 24.7369 35.5917C27.0508 35.3057 29.3647 34.1617 30.136 33.0177C30.7531 32.1025 30.5645 29.0136 30.3931 27.5836C30.3074 27.2022 29.9818 26.3824 29.3647 26.1536C28.5934 25.8675 20.8803 25.5815 17.0238 25.5815Z" fill="black"/>
</svg>
