<svg width="31" height="34" viewBox="0 0 31 34" fill="none" xmlns="http://www.w3.org/2000/svg">
<path d="M8.75571 21.2943L8.76019 21.3491C11.0098 21.6172 15.9429 22.1535 19.6067 22.1535C23.2704 22.1535 27.8017 21.8854 28.7659 21.3492C29.7301 20.8129 30.2603 18.346 30.4532 17.059C30.646 15.772 30.2121 12.5008 29.73 11.9646C29.2479 11.4284 22.9811 12.2327 18.4015 12.2328C13.8219 12.2328 11.7008 12.0719 9.96531 13.5734C8.24582 15.0611 8.59288 19.3039 8.75571 21.2943Z" fill="black"/>
<path d="M15.7498 8.21013C15.7498 9.92616 17.9191 9.81905 17.9191 9.81905L29.4887 9.28265V2.57953C29.4887 2.04327 29.4561 1.60298 29.2477 1.23874C28.9087 0.646131 28.1229 0.70262 27.8015 0.70262H16.4729C16.3122 2.49016 15.7498 6.49409 15.7498 8.21013Z" fill="black"/>
<path d="M15.9911 24.0266C13.0987 24.0266 1.86961 24.3728 1.52906 24.831C1.18851 25.2892 1.42948 26.5592 1.18844 28.7042C0.94741 30.8492 0.293132 32.9945 0.564924 33.143C0.836717 33.2916 21.4866 33.6257 23.2221 33.4112C25.3914 33.143 27.5607 32.0705 28.2838 30.998C28.8623 30.14 28.6855 27.2442 28.5248 25.9035C28.4445 25.546 28.1392 24.7774 27.5607 24.5629C26.8376 24.2947 19.6066 24.0266 15.9911 24.0266Z" fill="black"/>
</svg>
